{
	"asset":{
		"generator":"Khronos glTF Blender I/O v3.5.30",
		"version":"2.0"
	},
	"scene":0,
	"scenes":[
		{
			"name":"Scene",
			"nodes":[
				0,
				1,
				2
			]
		}
	],
	"nodes":[
		{
			"mesh":0,
			"name":"Icosphere",
			"scale":[
				2.661750078201294,
				2.661750078201294,
				2.661750078201294
			]
		},
		{
			"mesh":1,
			"name":"Icosphere.001",
			"rotation":[
				-0.024135813117027283,
				-0.23892337083816528,
				-0.29795926809310913,
				0.9238796234130859
			],
			"scale":[
				2.661750316619873,
				2.661750316619873,
				2.661750078201294
			]
		},
		{
			"mesh":2,
			"name":"Icosphere.002",
			"rotation":[
				0,
				0.4617486596107483,
				0,
				0.887010931968689
			],
			"scale":[
				2.661750316619873,
				2.661750078201294,
				2.661750316619873
			]
		}
	],
	"materials":[
		{
			"doubleSided":true,
			"name":"Material",
			"pbrMetallicRoughness":{
				"baseColorFactor":[
					0.030508628115057945,
					0.5629642605781555,
					0.021466180682182312,
					1
				],
				"metallicFactor":0,
				"roughnessFactor":0.5
			}
		},
		{
			"doubleSided":true,
			"emissiveFactor":[
				0.8499999046325684,
				0.0037852886598557234,
				0
			],
			"name":"Material.001",
			"pbrMetallicRoughness":{
				"baseColorFactor":[
					0.8000000715255737,
					0,
					0.002586246933788061,
					1
				],
				"metallicFactor":0,
				"roughnessFactor":0.5
			}
		},
		{
			"doubleSided":true,
			"emissiveFactor":[
				0.0016013151034712791,
				0.09999050945043564,
				0
			],
			"name":"Material.002",
			"pbrMetallicRoughness":{
				"baseColorFactor":[
					0,
					0.11558008939027786,
					0.0032946013379842043,
					1
				],
				"metallicFactor":0,
				"roughnessFactor":0.5
			}
		}
	],
	"meshes":[
		{
			"name":"Icosphere",
			"primitives":[
				{
					"attributes":{
						"POSITION":0,
						"TEXCOORD_0":1,
						"NORMAL":2
					},
					"indices":3,
					"material":0
				}
			]
		},
		{
			"name":"Icosphere.001",
			"primitives":[
				{
					"attributes":{
						"POSITION":4,
						"TEXCOORD_0":5,
						"NORMAL":6
					},
					"indices":7,
					"material":1
				}
			]
		},
		{
			"name":"Icosphere.002",
			"primitives":[
				{
					"attributes":{
						"POSITION":8,
						"TEXCOORD_0":9,
						"NORMAL":10
					},
					"indices":11,
					"material":2
				}
			]
		}
	],
	"accessors":[
		{
			"bufferView":0,
			"componentType":5126,
			"count":2160,
			"max":[
				0.9945225715637207,
				0.9999999403953552,
				1
			],
			"min":[
				-0.9945225715637207,
				-1,
				-0.9999999403953552
			],
			"type":"VEC3"
		},
		{
			"bufferView":1,
			"componentType":5126,
			"count":2160,
			"type":"VEC2"
		},
		{
			"bufferView":2,
			"componentType":5126,
			"count":2160,
			"type":"VEC3"
		},
		{
			"bufferView":3,
			"componentType":5123,
			"count":2160,
			"type":"SCALAR"
		},
		{
			"bufferView":4,
			"componentType":5126,
			"count":6116,
			"max":[
				1.0780333280563354,
				1.158386468887329,
				1.124279260635376
			],
			"min":[
				-1.13193678855896,
				-1.2520105838775635,
				-1.1161264181137085
			],
			"type":"VEC3"
		},
		{
			"bufferView":5,
			"componentType":5126,
			"count":6116,
			"type":"VEC2"
		},
		{
			"bufferView":6,
			"componentType":5126,
			"count":6116,
			"type":"VEC3"
		},
		{
			"bufferView":7,
			"componentType":5123,
			"count":9990,
			"type":"SCALAR"
		},
		{
			"bufferView":8,
			"componentType":5126,
			"count":6060,
			"max":[
				1.0892136096954346,
				1.1583865880966187,
				1.124279260635376
			],
			"min":[
				-1.13193678855896,
				-1.252010703086853,
				-1.1161264181137085
			],
			"type":"VEC3"
		},
		{
			"bufferView":9,
			"componentType":5126,
			"count":6060,
			"type":"VEC2"
		},
		{
			"bufferView":10,
			"componentType":5126,
			"count":6060,
			"type":"VEC3"
		},
		{
			"bufferView":11,
			"componentType":5123,
			"count":9966,
			"type":"SCALAR"
		}
	],
	"bufferViews":[
		{
			"buffer":0,
			"byteLength":25920,
			"byteOffset":0,
			"target":34962
		},
		{
			"buffer":0,
			"byteLength":17280,
			"byteOffset":25920,
			"target":34962
		},
		{
			"buffer":0,
			"byteLength":25920,
			"byteOffset":43200,
			"target":34962
		},
		{
			"buffer":0,
			"byteLength":4320,
			"byteOffset":69120,
			"target":34963
		},
		{
			"buffer":0,
			"byteLength":73392,
			"byteOffset":73440,
			"target":34962
		},
		{
			"buffer":0,
			"byteLength":48928,
			"byteOffset":146832,
			"target":34962
		},
		{
			"buffer":0,
			"byteLength":73392,
			"byteOffset":195760,
			"target":34962
		},
		{
			"buffer":0,
			"byteLength":19980,
			"byteOffset":269152,
			"target":34963
		},
		{
			"buffer":0,
			"byteLength":72720,
			"byteOffset":289132,
			"target":34962
		},
		{
			"buffer":0,
			"byteLength":48480,
			"byteOffset":361852,
			"target":34962
		},
		{
			"buffer":0,
			"byteLength":72720,
			"byteOffset":410332,
			"target":34962
		},
		{
			"buffer":0,
			"byteLength":19932,
			"byteOffset":483052,
			"target":34963
		}
	],
	"buffers":[
		{
			"byteLength":502984,
			"uri":"data:application/octet-stream;base64,"
		}
	]
}
