{
	"asset":{
		"generator":"Khronos glTF Blender I/O v3.5.30",
		"version":"2.0"
	},
	"extensionsUsed":[
		"KHR_materials_unlit"
	],
	"scene":0,
	"scenes":[
		{
			"name":"Scene",
			"nodes":[
				0
			]
		}
	],
	"nodes":[
		{
			"mesh":0,
			"name":"Object_5",
			"rotation":[
				-0.70710688829422,
				0,
				0,
				0.7071066498756409
			],
			"scale":[
				0.6000000238418579,
				0.5999999642372131,
				0.5999999642372131
			],
			"translation":[
				0,
				-1.9989994764328003,
				0
			]
		}
	],
	"materials":[
		{
			"doubleSided":true,
			"extensions":{
				"KHR_materials_unlit":{}
			},
			"name":"Material_0",
			"pbrMetallicRoughness":{
				"baseColorTexture":{
					"index":0,
					"texCoord":0
				},
				"metallicFactor":0,
				"roughnessFactor":0.9
			}
		}
	],
	"meshes":[
		{
			"name":"Object_0",
			"primitives":[
				{
					"attributes":{
						"POSITION":0,
						"TEXCOORD_0":1,
						"NORMAL":2
					},
					"indices":3,
					"material":0
				}
			]
		}
	],
	"textures":[
		{
			"sampler":0,
			"source":0
		}
	],
	"images":[
		{
			"mimeType":"image/png",
			"name":"Material_0_baseColor",
			"uri":"Material_0_baseColor.png"
		}
	],
	"accessors":[
		{
			"bufferView":0,
			"componentType":5126,
			"count":12613,
			"max":[
				866.4252319335938,
				1094.255859375,
				311.234619140625
			],
			"min":[
				-882.4430541992188,
				-949.4345092773438,
				-104.16727447509766
			],
			"type":"VEC3"
		},
		{
			"bufferView":1,
			"componentType":5126,
			"count":12613,
			"type":"VEC2"
		},
		{
			"bufferView":2,
			"componentType":5126,
			"count":12613,
			"type":"VEC3"
		},
		{
			"bufferView":3,
			"componentType":5123,
			"count":71508,
			"type":"SCALAR"
		}
	],
	"bufferViews":[
		{
			"buffer":0,
			"byteLength":151356,
			"byteOffset":0,
			"target":34962
		},
		{
			"buffer":0,
			"byteLength":100904,
			"byteOffset":151356,
			"target":34962
		},
		{
			"buffer":0,
			"byteLength":151356,
			"byteOffset":252260,
			"target":34962
		},
		{
			"buffer":0,
			"byteLength":143016,
			"byteOffset":403616,
			"target":34963
		}
	],
	"samplers":[
		{
			"magFilter":9729,
			"minFilter":9987
		}
	],
	"buffers":[
		{
			"byteLength":546632,
			"uri":"scene4.bin"
		}
	]
}
