{
	"asset":{
		"generator":"Khronos glTF Blender I/O v3.5.30",
		"version":"2.0"
	},
	"scene":0,
	"scenes":[
		{
			"name":"Scene",
			"nodes":[
				0,
				1,
				2,
				3,
				4,
				5,
				6,
				7,
				8,
				9,
				10,
				11,
				12,
				13,
				14
			]
		}
	],
	"nodes":[
		{
			"mesh":0,
			"name":"Object_12",
			"rotation":[
				0,
				-0.7071066498756409,
				0,
				0.70710688829422
			],
			"scale":[
				0.29999998211860657,
				0.30000001192092896,
				0.29999998211860657
			]
		},
		{
			"mesh":1,
			"name":"Object_13",
			"rotation":[
				0,
				-0.7071066498756409,
				0,
				0.70710688829422
			],
			"scale":[
				0.29999998211860657,
				0.30000001192092896,
				0.29999998211860657
			]
		},
		{
			"mesh":2,
			"name":"Object_14",
			"rotation":[
				0,
				-0.7071066498756409,
				0,
				0.70710688829422
			],
			"scale":[
				0.29999998211860657,
				0.30000001192092896,
				0.29999998211860657
			]
		},
		{
			"mesh":3,
			"name":"Object_15",
			"rotation":[
				0,
				-0.7071066498756409,
				0,
				0.70710688829422
			],
			"scale":[
				0.29999998211860657,
				0.30000001192092896,
				0.29999998211860657
			]
		},
		{
			"mesh":4,
			"name":"Object_16",
			"rotation":[
				0,
				-0.7071066498756409,
				0,
				0.70710688829422
			],
			"scale":[
				0.29999998211860657,
				0.30000001192092896,
				0.29999998211860657
			]
		},
		{
			"mesh":5,
			"name":"Object_17",
			"rotation":[
				0,
				-0.7071066498756409,
				0,
				0.70710688829422
			],
			"scale":[
				0.29999998211860657,
				0.30000001192092896,
				0.29999998211860657
			]
		},
		{
			"mesh":6,
			"name":"Object_18",
			"rotation":[
				0,
				-0.7071066498756409,
				0,
				0.70710688829422
			],
			"scale":[
				0.29999998211860657,
				0.30000001192092896,
				0.29999998211860657
			]
		},
		{
			"mesh":7,
			"name":"Object_19",
			"rotation":[
				0,
				-0.7071066498756409,
				0,
				0.70710688829422
			],
			"scale":[
				0.29999998211860657,
				0.30000001192092896,
				0.29999998211860657
			]
		},
		{
			"mesh":8,
			"name":"Object_20",
			"rotation":[
				0,
				-0.7071066498756409,
				0,
				0.70710688829422
			],
			"scale":[
				0.29999998211860657,
				0.30000001192092896,
				0.29999998211860657
			]
		},
		{
			"mesh":9,
			"name":"Object_21",
			"rotation":[
				0,
				-0.7071066498756409,
				0,
				0.70710688829422
			],
			"scale":[
				0.29999998211860657,
				0.30000001192092896,
				0.29999998211860657
			]
		},
		{
			"mesh":10,
			"name":"Object_22",
			"rotation":[
				0,
				-0.7071066498756409,
				0,
				0.70710688829422
			],
			"scale":[
				0.29999998211860657,
				0.30000001192092896,
				0.29999998211860657
			]
		},
		{
			"mesh":11,
			"name":"Object_23",
			"rotation":[
				0,
				-0.7071066498756409,
				0,
				0.70710688829422
			],
			"scale":[
				0.29999998211860657,
				0.30000001192092896,
				0.29999998211860657
			]
		},
		{
			"mesh":12,
			"name":"Object_24",
			"rotation":[
				0,
				-0.7071066498756409,
				0,
				0.70710688829422
			],
			"scale":[
				0.29999998211860657,
				0.30000001192092896,
				0.29999998211860657
			]
		},
		{
			"mesh":13,
			"name":"Object_25",
			"rotation":[
				0,
				-0.7071066498756409,
				0,
				0.70710688829422
			],
			"scale":[
				0.29999998211860657,
				0.30000001192092896,
				0.29999998211860657
			]
		},
		{
			"mesh":14,
			"name":"Object_26",
			"rotation":[
				0,
				-0.7071066498756409,
				0,
				0.70710688829422
			],
			"scale":[
				0.29999998211860657,
				0.30000001192092896,
				0.29999998211860657
			]
		}
	],
	"materials":[
		{
			"doubleSided":true,
			"name":"Material.004",
			"pbrMetallicRoughness":{
				"baseColorFactor":[
					0.015256199985742569,
					0.015256199985742569,
					0.015256199985742569,
					1
				],
				"metallicFactor":0,
				"roughnessFactor":0.9965885877609253
			}
		},
		{
			"doubleSided":true,
			"name":"Material.007",
			"pbrMetallicRoughness":{
				"baseColorFactor":[
					0.02556920051574707,
					0.02556920051574707,
					0.02556920051574707,
					1
				],
				"metallicFactor":0,
				"roughnessFactor":0.9942825436592102
			}
		},
		{
			"doubleSided":true,
			"name":"Material.003",
			"pbrMetallicRoughness":{
				"baseColorFactor":[
					0.009018179960548878,
					0.009018179960548878,
					0.009018179960548878,
					1
				],
				"metallicFactor":0,
				"roughnessFactor":0.997983455657959
			}
		},
		{
			"doubleSided":true,
			"name":"Material.012",
			"pbrMetallicRoughness":{
				"baseColorFactor":[
					0.02338859997689724,
					0.02338859997689724,
					0.02338859997689724,
					1
				],
				"metallicFactor":0,
				"roughnessFactor":0.9947701692581177
			}
		},
		{
			"doubleSided":true,
			"emissiveFactor":[
				0.2618047297000885,
				1,
				0.18704943358898163
			],
			"name":"Material.009",
			"pbrMetallicRoughness":{
				"baseColorFactor":[
					0.3089073896408081,
					1,
					0.14430706202983856,
					1
				],
				"roughnessFactor":0
			}
		},
		{
			"doubleSided":true,
			"name":"material_0",
			"pbrMetallicRoughness":{
				"baseColorFactor":[
					0.054128099232912064,
					0.054128099232912064,
					0.054128099232912064,
					1
				],
				"metallicFactor":0,
				"roughnessFactor":0.9878965616226196
			}
		},
		{
			"doubleSided":true,
			"name":"Material.013",
			"pbrMetallicRoughness":{
				"baseColorFactor":[
					0.1904589980840683,
					0.03303439915180206,
					0.03303439915180206,
					1
				],
				"metallicFactor":0,
				"roughnessFactor":0.9851295351982117
			}
		},
		{
			"doubleSided":true,
			"name":"Material.014",
			"pbrMetallicRoughness":{
				"baseColorFactor":[
					0.006370100192725658,
					0.006370100192725658,
					0.006370100192725658,
					1
				],
				"metallicFactor":0,
				"roughnessFactor":0.9985756278038025
			}
		},
		{
			"doubleSided":true,
			"name":"Material.006",
			"pbrMetallicRoughness":{
				"baseColorFactor":[
					0.019976800307631493,
					0.019976800307631493,
					0.019976800307631493,
					1
				],
				"metallicFactor":0,
				"roughnessFactor":0.9955330491065979
			}
		},
		{
			"doubleSided":true,
			"name":"Material.011",
			"pbrMetallicRoughness":{
				"baseColorFactor":[
					0.021811658516526222,
					0.019694477319717407,
					0.019694477319717407,
					1
				],
				"metallicFactor":0,
				"roughnessFactor":0.9938915371894836
			}
		},
		{
			"doubleSided":true,
			"name":"Material.008",
			"pbrMetallicRoughness":{
				"baseColorFactor":[
					0.030662499368190765,
					0.030662499368190765,
					0.030662499368190765,
					1
				],
				"metallicFactor":0,
				"roughnessFactor":0.9931436777114868
			}
		},
		{
			"doubleSided":true,
			"name":"Material.001",
			"pbrMetallicRoughness":{
				"baseColorFactor":[
					0.21836699545383453,
					0.15743599832057953,
					0.07831870019435883,
					1
				],
				"metallicFactor":0,
				"roughnessFactor":0.963176965713501
			}
		},
		{
			"doubleSided":true,
			"name":"Material.002",
			"pbrMetallicRoughness":{
				"baseColorFactor":[
					0.1901780068874359,
					0.16340799629688263,
					0.1476379930973053,
					1
				],
				"metallicFactor":0,
				"roughnessFactor":0.9624428153038025
			}
		},
		{
			"doubleSided":true,
			"name":"Material.005",
			"pbrMetallicRoughness":{
				"baseColorFactor":[
					0.1282390058040619,
					0.0811368003487587,
					0.060582298785448074,
					1
				],
				"metallicFactor":0,
				"roughnessFactor":0.9799498915672302
			}
		},
		{
			"doubleSided":true,
			"name":"Material.010",
			"pbrMetallicRoughness":{
				"baseColorFactor":[
					0.036457400768995285,
					0.04445460066199303,
					0.03322570025920868,
					1
				],
				"metallicFactor":0,
				"roughnessFactor":0.9906210899353027
			}
		}
	],
	"meshes":[
		{
			"name":"Cube.003_Material.004_0",
			"primitives":[
				{
					"attributes":{
						"POSITION":0,
						"TEXCOORD_0":1,
						"NORMAL":2
					},
					"indices":3,
					"material":0
				}
			]
		},
		{
			"name":"Cube.003_Material.007_0",
			"primitives":[
				{
					"attributes":{
						"POSITION":4,
						"TEXCOORD_0":5,
						"NORMAL":6
					},
					"indices":7,
					"material":1
				}
			]
		},
		{
			"name":"Cube.003_Material.003_0",
			"primitives":[
				{
					"attributes":{
						"POSITION":8,
						"TEXCOORD_0":9,
						"NORMAL":10
					},
					"indices":11,
					"material":2
				}
			]
		},
		{
			"name":"Cube.003_Material.012_0",
			"primitives":[
				{
					"attributes":{
						"POSITION":12,
						"TEXCOORD_0":13,
						"NORMAL":14
					},
					"indices":15,
					"material":3
				}
			]
		},
		{
			"name":"Cube.003_Material.009_0",
			"primitives":[
				{
					"attributes":{
						"POSITION":16,
						"TEXCOORD_0":17,
						"NORMAL":18
					},
					"indices":19,
					"material":4
				}
			]
		},
		{
			"name":"Cube.003_Material.005_0",
			"primitives":[
				{
					"attributes":{
						"POSITION":20,
						"TEXCOORD_0":21,
						"NORMAL":22
					},
					"indices":23,
					"material":5
				}
			]
		},
		{
			"name":"Cube.003_Material.013_0",
			"primitives":[
				{
					"attributes":{
						"POSITION":24,
						"TEXCOORD_0":25,
						"NORMAL":26
					},
					"indices":27,
					"material":6
				}
			]
		},
		{
			"name":"Cube.003_Material.014_0",
			"primitives":[
				{
					"attributes":{
						"POSITION":28,
						"TEXCOORD_0":29,
						"NORMAL":30
					},
					"indices":31,
					"material":7
				}
			]
		},
		{
			"name":"Cube.003_Material.006_0",
			"primitives":[
				{
					"attributes":{
						"POSITION":32,
						"TEXCOORD_0":33,
						"NORMAL":34
					},
					"indices":35,
					"material":8
				}
			]
		},
		{
			"name":"Cube.003_Material.011_0",
			"primitives":[
				{
					"attributes":{
						"POSITION":36,
						"TEXCOORD_0":37,
						"NORMAL":38
					},
					"indices":39,
					"material":9
				}
			]
		},
		{
			"name":"Cube.003_Material.008_0",
			"primitives":[
				{
					"attributes":{
						"POSITION":40,
						"TEXCOORD_0":41,
						"NORMAL":42
					},
					"indices":43,
					"material":10
				}
			]
		},
		{
			"name":"Cube.003_Material_0",
			"primitives":[
				{
					"attributes":{
						"POSITION":44,
						"TEXCOORD_0":45,
						"NORMAL":46
					},
					"indices":47,
					"material":11
				}
			]
		},
		{
			"name":"Cube.003_Material.002_0",
			"primitives":[
				{
					"attributes":{
						"POSITION":48,
						"TEXCOORD_0":49,
						"NORMAL":50
					},
					"indices":51,
					"material":12
				}
			]
		},
		{
			"name":"Cube.003_Material.001_0",
			"primitives":[
				{
					"attributes":{
						"POSITION":52,
						"TEXCOORD_0":53,
						"NORMAL":54
					},
					"indices":55,
					"material":13
				}
			]
		},
		{
			"name":"Cube.003_Material.010_0",
			"primitives":[
				{
					"attributes":{
						"POSITION":56,
						"TEXCOORD_0":57,
						"NORMAL":58
					},
					"indices":59,
					"material":14
				}
			]
		}
	],
	"accessors":[
		{
			"bufferView":0,
			"componentType":5126,
			"count":14274,
			"max":[
				4.310781478881836,
				1.3130313158035278,
				0.9091036319732666
			],
			"min":[
				-4.086616516113281,
				-1.1540175676345825,
				-0.9786630272865295
			],
			"type":"VEC3"
		},
		{
			"bufferView":1,
			"componentType":5126,
			"count":14274,
			"type":"VEC2"
		},
		{
			"bufferView":2,
			"componentType":5126,
			"count":14274,
			"type":"VEC3"
		},
		{
			"bufferView":3,
			"componentType":5123,
			"count":15816,
			"type":"SCALAR"
		},
		{
			"bufferView":4,
			"componentType":5126,
			"count":1885,
			"max":[
				3.954354763031006,
				0.6285257935523987,
				0.735916018486023
			],
			"min":[
				-1.6149590015411377,
				-1.0772154331207275,
				-0.8073615431785583
			],
			"type":"VEC3"
		},
		{
			"bufferView":5,
			"componentType":5126,
			"count":1885,
			"type":"VEC2"
		},
		{
			"bufferView":6,
			"componentType":5126,
			"count":1885,
			"type":"VEC3"
		},
		{
			"bufferView":7,
			"componentType":5123,
			"count":2028,
			"type":"SCALAR"
		},
		{
			"bufferView":8,
			"componentType":5126,
			"count":1780,
			"max":[
				4.264423847198486,
				1.5303064584732056,
				0.9051735401153564
			],
			"min":[
				0.3921365737915039,
				0.08018457889556885,
				-0.9051737189292908
			],
			"type":"VEC3"
		},
		{
			"bufferView":9,
			"componentType":5126,
			"count":1780,
			"type":"VEC2"
		},
		{
			"bufferView":10,
			"componentType":5126,
			"count":1780,
			"type":"VEC3"
		},
		{
			"bufferView":11,
			"componentType":5123,
			"count":1878,
			"type":"SCALAR"
		},
		{
			"bufferView":12,
			"componentType":5126,
			"count":1002,
			"max":[
				4.030180931091309,
				0.3208082318305969,
				-0.22479405999183655
			],
			"min":[
				2.0847373008728027,
				-0.3710949420928955,
				-0.6223265528678894
			],
			"type":"VEC3"
		},
		{
			"bufferView":13,
			"componentType":5126,
			"count":1002,
			"type":"VEC2"
		},
		{
			"bufferView":14,
			"componentType":5126,
			"count":1002,
			"type":"VEC3"
		},
		{
			"bufferView":15,
			"componentType":5123,
			"count":1110,
			"type":"SCALAR"
		},
		{
			"bufferView":16,
			"componentType":5126,
			"count":76,
			"max":[
				4.0312180519104,
				0.16536517441272736,
				-0.5154798626899719
			],
			"min":[
				3.9988045692443848,
				0.1102478951215744,
				-0.5632128119468689
			],
			"type":"VEC3"
		},
		{
			"bufferView":17,
			"componentType":5126,
			"count":76,
			"type":"VEC2"
		},
		{
			"bufferView":18,
			"componentType":5126,
			"count":76,
			"type":"VEC3"
		},
		{
			"bufferView":19,
			"componentType":5123,
			"count":84,
			"type":"SCALAR"
		},
		{
			"bufferView":20,
			"componentType":5126,
			"count":3700,
			"max":[
				4.08254337310791,
				0.8304691910743713,
				0.6116800904273987
			],
			"min":[
				0.6814367771148682,
				-0.7537580728530884,
				-0.7361515164375305
			],
			"type":"VEC3"
		},
		{
			"bufferView":21,
			"componentType":5126,
			"count":3700,
			"type":"VEC2"
		},
		{
			"bufferView":22,
			"componentType":5126,
			"count":3700,
			"type":"VEC3"
		},
		{
			"bufferView":23,
			"componentType":5123,
			"count":3852,
			"type":"SCALAR"
		},
		{
			"bufferView":24,
			"componentType":5126,
			"count":249,
			"max":[
				4.095195770263672,
				0.24400347471237183,
				-0.3762609660625458
			],
			"min":[
				3.998997926712036,
				0.03435548394918442,
				-0.46701332926750183
			],
			"type":"VEC3"
		},
		{
			"bufferView":25,
			"componentType":5126,
			"count":249,
			"type":"VEC2"
		},
		{
			"bufferView":26,
			"componentType":5126,
			"count":249,
			"type":"VEC3"
		},
		{
			"bufferView":27,
			"componentType":5123,
			"count":336,
			"type":"SCALAR"
		},
		{
			"bufferView":28,
			"componentType":5126,
			"count":372,
			"max":[
				4.152207374572754,
				0.2839563488960266,
				0.026224583387374878
			],
			"min":[
				3.369547128677368,
				-0.16191795468330383,
				-0.7781058549880981
			],
			"type":"VEC3"
		},
		{
			"bufferView":29,
			"componentType":5126,
			"count":372,
			"type":"VEC2"
		},
		{
			"bufferView":30,
			"componentType":5126,
			"count":372,
			"type":"VEC3"
		},
		{
			"bufferView":31,
			"componentType":5123,
			"count":372,
			"type":"SCALAR"
		},
		{
			"bufferView":32,
			"componentType":5126,
			"count":1645,
			"max":[
				4.238830089569092,
				0.6179252862930298,
				0.7149202227592468
			],
			"min":[
				0.47090935707092285,
				-1.1238362789154053,
				-0.7566853165626526
			],
			"type":"VEC3"
		},
		{
			"bufferView":33,
			"componentType":5126,
			"count":1645,
			"type":"VEC2"
		},
		{
			"bufferView":34,
			"componentType":5126,
			"count":1645,
			"type":"VEC3"
		},
		{
			"bufferView":35,
			"componentType":5123,
			"count":1839,
			"type":"SCALAR"
		},
		{
			"bufferView":36,
			"componentType":5126,
			"count":1206,
			"max":[
				0.9267461895942688,
				0.3827126622200012,
				0.33285778760910034
			],
			"min":[
				-3.3602936267852783,
				-0.38598960638046265,
				-0.33285796642303467
			],
			"type":"VEC3"
		},
		{
			"bufferView":37,
			"componentType":5126,
			"count":1206,
			"type":"VEC2"
		},
		{
			"bufferView":38,
			"componentType":5126,
			"count":1206,
			"type":"VEC3"
		},
		{
			"bufferView":39,
			"componentType":5123,
			"count":1224,
			"type":"SCALAR"
		},
		{
			"bufferView":40,
			"componentType":5126,
			"count":2866,
			"max":[
				2.6330599784851074,
				0.14100021123886108,
				1.1974303722381592
			],
			"min":[
				0.7748494148254395,
				-1.257752537727356,
				-0.541790246963501
			],
			"type":"VEC3"
		},
		{
			"bufferView":41,
			"componentType":5126,
			"count":2866,
			"type":"VEC2"
		},
		{
			"bufferView":42,
			"componentType":5126,
			"count":2866,
			"type":"VEC3"
		},
		{
			"bufferView":43,
			"componentType":5123,
			"count":3108,
			"type":"SCALAR"
		},
		{
			"bufferView":44,
			"componentType":5126,
			"count":3581,
			"max":[
				2.4673359394073486,
				-0.637603223323822,
				0.7489608526229858
			],
			"min":[
				2.0834262371063232,
				-0.9924299716949463,
				0.04060053825378418
			],
			"type":"VEC3"
		},
		{
			"bufferView":45,
			"componentType":5126,
			"count":3581,
			"type":"VEC2"
		},
		{
			"bufferView":46,
			"componentType":5126,
			"count":3581,
			"type":"VEC3"
		},
		{
			"bufferView":47,
			"componentType":5123,
			"count":3888,
			"type":"SCALAR"
		},
		{
			"bufferView":48,
			"componentType":5126,
			"count":399,
			"max":[
				2.467050552368164,
				-0.6636624932289124,
				0.7233171463012695
			],
			"min":[
				2.4605565071105957,
				-0.967714786529541,
				0.06580880284309387
			],
			"type":"VEC3"
		},
		{
			"bufferView":49,
			"componentType":5126,
			"count":399,
			"type":"VEC2"
		},
		{
			"bufferView":50,
			"componentType":5126,
			"count":399,
			"type":"VEC3"
		},
		{
			"bufferView":51,
			"componentType":5123,
			"count":432,
			"type":"SCALAR"
		},
		{
			"bufferView":52,
			"componentType":5126,
			"count":1370,
			"max":[
				2.0834269523620605,
				-0.6548967361450195,
				0.7319431304931641
			],
			"min":[
				1.936492919921875,
				-0.9754666686058044,
				0.057329267263412476
			],
			"type":"VEC3"
		},
		{
			"bufferView":53,
			"componentType":5126,
			"count":1370,
			"type":"VEC2"
		},
		{
			"bufferView":54,
			"componentType":5126,
			"count":1370,
			"type":"VEC3"
		},
		{
			"bufferView":55,
			"componentType":5123,
			"count":1404,
			"type":"SCALAR"
		},
		{
			"bufferView":56,
			"componentType":5126,
			"count":1305,
			"max":[
				2.8475992679595947,
				-0.20869630575180054,
				0.2759309709072113
			],
			"min":[
				1.7297934293746948,
				-1.2299965620040894,
				-0.8628454208374023
			],
			"type":"VEC3"
		},
		{
			"bufferView":57,
			"componentType":5126,
			"count":1305,
			"type":"VEC2"
		},
		{
			"bufferView":58,
			"componentType":5126,
			"count":1305,
			"type":"VEC3"
		},
		{
			"bufferView":59,
			"componentType":5123,
			"count":1416,
			"type":"SCALAR"
		}
	],
	"bufferViews":[
		{
			"buffer":0,
			"byteLength":171288,
			"byteOffset":0,
			"target":34962
		},
		{
			"buffer":0,
			"byteLength":114192,
			"byteOffset":171288,
			"target":34962
		},
		{
			"buffer":0,
			"byteLength":171288,
			"byteOffset":285480,
			"target":34962
		},
		{
			"buffer":0,
			"byteLength":31632,
			"byteOffset":456768,
			"target":34963
		},
		{
			"buffer":0,
			"byteLength":22620,
			"byteOffset":488400,
			"target":34962
		},
		{
			"buffer":0,
			"byteLength":15080,
			"byteOffset":511020,
			"target":34962
		},
		{
			"buffer":0,
			"byteLength":22620,
			"byteOffset":526100,
			"target":34962
		},
		{
			"buffer":0,
			"byteLength":4056,
			"byteOffset":548720,
			"target":34963
		},
		{
			"buffer":0,
			"byteLength":21360,
			"byteOffset":552776,
			"target":34962
		},
		{
			"buffer":0,
			"byteLength":14240,
			"byteOffset":574136,
			"target":34962
		},
		{
			"buffer":0,
			"byteLength":21360,
			"byteOffset":588376,
			"target":34962
		},
		{
			"buffer":0,
			"byteLength":3756,
			"byteOffset":609736,
			"target":34963
		},
		{
			"buffer":0,
			"byteLength":12024,
			"byteOffset":613492,
			"target":34962
		},
		{
			"buffer":0,
			"byteLength":8016,
			"byteOffset":625516,
			"target":34962
		},
		{
			"buffer":0,
			"byteLength":12024,
			"byteOffset":633532,
			"target":34962
		},
		{
			"buffer":0,
			"byteLength":2220,
			"byteOffset":645556,
			"target":34963
		},
		{
			"buffer":0,
			"byteLength":912,
			"byteOffset":647776,
			"target":34962
		},
		{
			"buffer":0,
			"byteLength":608,
			"byteOffset":648688,
			"target":34962
		},
		{
			"buffer":0,
			"byteLength":912,
			"byteOffset":649296,
			"target":34962
		},
		{
			"buffer":0,
			"byteLength":168,
			"byteOffset":650208,
			"target":34963
		},
		{
			"buffer":0,
			"byteLength":44400,
			"byteOffset":650376,
			"target":34962
		},
		{
			"buffer":0,
			"byteLength":29600,
			"byteOffset":694776,
			"target":34962
		},
		{
			"buffer":0,
			"byteLength":44400,
			"byteOffset":724376,
			"target":34962
		},
		{
			"buffer":0,
			"byteLength":7704,
			"byteOffset":768776,
			"target":34963
		},
		{
			"buffer":0,
			"byteLength":2988,
			"byteOffset":776480,
			"target":34962
		},
		{
			"buffer":0,
			"byteLength":1992,
			"byteOffset":779468,
			"target":34962
		},
		{
			"buffer":0,
			"byteLength":2988,
			"byteOffset":781460,
			"target":34962
		},
		{
			"buffer":0,
			"byteLength":672,
			"byteOffset":784448,
			"target":34963
		},
		{
			"buffer":0,
			"byteLength":4464,
			"byteOffset":785120,
			"target":34962
		},
		{
			"buffer":0,
			"byteLength":2976,
			"byteOffset":789584,
			"target":34962
		},
		{
			"buffer":0,
			"byteLength":4464,
			"byteOffset":792560,
			"target":34962
		},
		{
			"buffer":0,
			"byteLength":744,
			"byteOffset":797024,
			"target":34963
		},
		{
			"buffer":0,
			"byteLength":19740,
			"byteOffset":797768,
			"target":34962
		},
		{
			"buffer":0,
			"byteLength":13160,
			"byteOffset":817508,
			"target":34962
		},
		{
			"buffer":0,
			"byteLength":19740,
			"byteOffset":830668,
			"target":34962
		},
		{
			"buffer":0,
			"byteLength":3678,
			"byteOffset":850408,
			"target":34963
		},
		{
			"buffer":0,
			"byteLength":14472,
			"byteOffset":854088,
			"target":34962
		},
		{
			"buffer":0,
			"byteLength":9648,
			"byteOffset":868560,
			"target":34962
		},
		{
			"buffer":0,
			"byteLength":14472,
			"byteOffset":878208,
			"target":34962
		},
		{
			"buffer":0,
			"byteLength":2448,
			"byteOffset":892680,
			"target":34963
		},
		{
			"buffer":0,
			"byteLength":34392,
			"byteOffset":895128,
			"target":34962
		},
		{
			"buffer":0,
			"byteLength":22928,
			"byteOffset":929520,
			"target":34962
		},
		{
			"buffer":0,
			"byteLength":34392,
			"byteOffset":952448,
			"target":34962
		},
		{
			"buffer":0,
			"byteLength":6216,
			"byteOffset":986840,
			"target":34963
		},
		{
			"buffer":0,
			"byteLength":42972,
			"byteOffset":993056,
			"target":34962
		},
		{
			"buffer":0,
			"byteLength":28648,
			"byteOffset":1036028,
			"target":34962
		},
		{
			"buffer":0,
			"byteLength":42972,
			"byteOffset":1064676,
			"target":34962
		},
		{
			"buffer":0,
			"byteLength":7776,
			"byteOffset":1107648,
			"target":34963
		},
		{
			"buffer":0,
			"byteLength":4788,
			"byteOffset":1115424,
			"target":34962
		},
		{
			"buffer":0,
			"byteLength":3192,
			"byteOffset":1120212,
			"target":34962
		},
		{
			"buffer":0,
			"byteLength":4788,
			"byteOffset":1123404,
			"target":34962
		},
		{
			"buffer":0,
			"byteLength":864,
			"byteOffset":1128192,
			"target":34963
		},
		{
			"buffer":0,
			"byteLength":16440,
			"byteOffset":1129056,
			"target":34962
		},
		{
			"buffer":0,
			"byteLength":10960,
			"byteOffset":1145496,
			"target":34962
		},
		{
			"buffer":0,
			"byteLength":16440,
			"byteOffset":1156456,
			"target":34962
		},
		{
			"buffer":0,
			"byteLength":2808,
			"byteOffset":1172896,
			"target":34963
		},
		{
			"buffer":0,
			"byteLength":15660,
			"byteOffset":1175704,
			"target":34962
		},
		{
			"buffer":0,
			"byteLength":10440,
			"byteOffset":1191364,
			"target":34962
		},
		{
			"buffer":0,
			"byteLength":15660,
			"byteOffset":1201804,
			"target":34962
		},
		{
			"buffer":0,
			"byteLength":2832,
			"byteOffset":1217464,
			"target":34963
		}
	],
	"buffers":[
		{
			"byteLength":1220296,
			"uri":"data:application/octet-stream;base64,"
		}
	]
}
